<svg xmlns="http://www.w3.org/2000/svg" version="1.1" xmlns:xlink="http://www.w3.org/1999/xlink" xmlns:svgjs="http://svgjs.dev/svgjs" width="1500" height="1500" viewBox="0 0 1500 1500"><rect width="1500" height="1500" fill="#ffffff"></rect><g transform="matrix(0.6666666666666666,0,0,0.6666666666666666,249.39393939393938,678.6183209429846)"><svg viewBox="0 0 396 56" data-background-color="#ffffff" preserveAspectRatio="xMidYMid meet" height="212" width="1500" xmlns="http://www.w3.org/2000/svg" xmlns:xlink="http://www.w3.org/1999/xlink"><g id="tight-bounds" transform="matrix(1,0,0,1,0.2400000000000091,0.31310682516198085)"><svg viewBox="0 0 395.52 55.373786349676045" height="55.373786349676045" width="395.52"><g><svg viewBox="0 0 501.24741218638417 70.17588771929825" height="55.373786349676045" width="395.52"><g><rect width="5.701381960398596" height="63.53762807017542" x="85.10094656002066" y="3.3191298245614114" fill="#000000" opacity="1" stroke-width="0" stroke="transparent" fill-opacity="1" class="rect-yte-0" data-fill-palette-color="primary" rx="1%" id="yte-0" data-palette-color="#000000"></rect></g><g transform="matrix(1,0,0,1,105.72741218638416,3.477183625730998)"><svg viewBox="0 0 395.52 63.22152046783625" height="63.22152046783625" width="395.52"><g id="textblocktransform"><svg viewBox="0 0 395.52 63.22152046783625" height="63.22152046783625" width="395.52" id="textblock"><g><svg viewBox="0 0 395.52 63.22152046783625" height="63.22152046783625" width="395.52"><g transform="matrix(1,0,0,1,0,0)"><svg width="395.52" viewBox="3.33 -33.75 213.73 34.17" height="63.22152046783625" data-palette-color="#000000"><path d="M7.08 0L3.33 0 3.33-20.83 6.81-20.83 6.81-17.47Q7.95-19.31 9.77-20.28 11.6-21.25 13.72-21.25L13.72-21.25Q15.94-21.25 17.83-20.16 19.72-19.06 20.9-17 22.08-14.93 22.08-11.98L22.08-11.98 22.08 0 18.33 0 18.33-11.46Q18.33-13.92 16.86-15.82 15.38-17.71 12.71-17.71L12.71-17.71Q10.52-17.71 8.8-16.13 7.08-14.55 7.08-11.56L7.08-11.56 7.08 0ZM32.08 0L28.33 0 28.33-20.83 32.08-20.83 32.08 0ZM30.21-24.58L30.21-24.58Q29.16-24.58 28.43-25.31 27.71-26.04 27.71-27.08L27.71-27.08Q27.71-28.16 28.43-28.87 29.16-29.58 30.21-29.58L30.21-29.58Q31.28-29.58 31.99-28.87 32.71-28.16 32.71-27.08L32.71-27.08Q32.71-26.04 31.99-25.31 31.28-24.58 30.21-24.58ZM47.67 0.28L47.67 0.28Q44.82 0.28 42.46-1.16 40.1-2.6 38.69-5.03 37.29-7.47 37.29-10.42L37.29-10.42Q37.29-13.37 38.69-15.8 40.1-18.23 42.46-19.67 44.82-21.11 47.67-21.11L47.67-21.11Q49.72-21.11 51.52-20.38 53.33-19.65 54.72-18.37L54.72-18.37 54.72-33.33 58.47-33.33 58.47 0 55 0 55-2.74Q53.61-1.35 51.71-0.54 49.82 0.28 47.67 0.28ZM48.15-3.13L48.15-3.13Q50.13-3.13 51.75-4.11 53.36-5.1 54.32-6.75 55.27-8.4 55.27-10.42L55.27-10.42Q55.27-12.43 54.32-14.08 53.36-15.73 51.75-16.72 50.13-17.71 48.15-17.71L48.15-17.71Q46.18-17.71 44.56-16.72 42.95-15.73 41.99-14.08 41.04-12.43 41.04-10.42L41.04-10.42Q41.04-8.4 41.99-6.75 42.95-5.1 44.56-4.11 46.18-3.13 48.15-3.13ZM74.06 0.28L74.06 0.28Q71.21 0.28 68.85-1.16 66.49-2.6 65.08-5.03 63.67-7.47 63.67-10.42L63.67-10.42Q63.67-13.37 65.08-15.8 66.49-18.23 68.85-19.67 71.21-21.11 74.06-21.11L74.06-21.11Q76.21-21.11 78.1-20.31 79.99-19.51 81.38-18.09L81.38-18.09 81.38-20.83 84.85-20.83 84.85 0 81.38 0 81.38-2.74Q79.99-1.35 78.1-0.54 76.21 0.28 74.06 0.28ZM74.54-3.13L74.54-3.13Q76.52-3.13 78.13-4.11 79.75-5.1 80.7-6.75 81.66-8.4 81.66-10.42L81.66-10.42Q81.66-12.43 80.7-14.08 79.75-15.73 78.13-16.72 76.52-17.71 74.54-17.71L74.54-17.71Q72.56-17.71 70.95-16.72 69.33-15.73 68.38-14.08 67.42-12.43 67.42-10.42L67.42-10.42Q67.42-8.4 68.38-6.75 69.33-5.1 70.95-4.11 72.56-3.13 74.54-3.13ZM95.27 0L91.52 0 91.52-20.83 94.99-20.83 94.99-17.47Q96.14-19.31 97.96-20.28 99.78-21.25 101.9-21.25L101.9-21.25Q104.12-21.25 106.01-20.16 107.91-19.06 109.09-17 110.27-14.93 110.27-11.98L110.27-11.98 110.27 0 106.52 0 106.52-11.46Q106.52-13.92 105.04-15.82 103.57-17.71 100.89-17.71L100.89-17.71Q98.71-17.71 96.99-16.13 95.27-14.55 95.27-11.56L95.27-11.56 95.27 0ZM124.47 0.42L124.47 0.42Q122.28 0.42 120.37-0.68 118.46-1.77 117.28-3.85 116.1-5.94 116.1-8.85L116.1-8.85 116.1-20.83 119.85-20.83 119.85-9.38Q119.85-6.91 121.32-5.02 122.8-3.13 125.47-3.13L125.47-3.13Q127.66-3.13 129.38-4.7 131.1-6.28 131.1-9.27L131.1-9.27 131.1-20.83 134.85-20.83 134.85 0 131.38 0 131.38-3.37Q130.23-1.53 128.41-0.56 126.58 0.42 124.47 0.42ZM145.26 0L141.51 0 141.51-20.83 144.99-20.83 144.99-17.01Q146.1-18.85 147.94-19.95 149.78-21.04 152.31-21.04L152.31-21.04 153.25-17.29Q152.59-17.5 151.72-17.5L151.72-17.5Q148.8-17.5 147.03-15.64 145.26-13.78 145.26-10.35L145.26-10.35 145.26 0ZM167.07 0.42L167.07 0.42Q163.8 0.42 161.22-1.04 158.63-2.5 157.15-5.02 155.68-7.53 155.68-10.63L155.68-10.63Q155.68-13.58 157.1-15.99 158.52-18.4 160.94-19.83 163.35-21.25 166.27-21.25L166.27-21.25Q169.15-21.25 171.55-19.88 173.94-18.51 175.36-16.18 176.79-13.85 176.79-10.9L176.79-10.9 176.79-9.38 163.18-9.38Q162.27-9.38 161.34-9.44 160.4-9.51 159.5-9.65L159.5-9.65Q159.88-6.88 162.01-5 164.15-3.13 167.1-3.13L167.1-3.13Q169.08-3.13 170.78-4.03 172.48-4.93 173.52-6.42L173.52-6.42 174.57-2.15Q173.07-0.94 171.15-0.26 169.22 0.42 167.07 0.42ZM159.39-12.19L159.39-12.19Q161.27-12.5 163.18-12.5L163.18-12.5 170.09-12.5Q170.85-12.5 171.6-12.45 172.34-12.4 173.11-12.33L173.11-12.33Q172.62-14.76 170.68-16.34 168.73-17.92 166.27-17.92L166.27-17.92Q163.73-17.92 161.82-16.23 159.91-14.55 159.39-12.19ZM187.97 0L184.22 0 184.22-17.71 179.49-17.71 179.49-20.83 184.32-20.83 184.32-26.81Q184.32-30.21 186.33-31.98 188.35-33.75 191.13-33.75L191.13-33.75Q192.17-33.75 193.26-33.51 194.36-33.26 195.33-32.67L195.33-32.67 194.42-29.03Q192.97-30.63 191.02-30.63L191.02-30.63Q189.84-30.63 188.85-29.83 187.86-29.03 187.86-26.74L187.86-26.74 187.86-20.83 193.04-20.83 193.04-17.71 187.97-17.71 187.97 0ZM207.34 0.42L207.34 0.42Q204.07 0.42 201.49-1.04 198.9-2.5 197.43-5.02 195.95-7.53 195.95-10.63L195.95-10.63Q195.95-13.58 197.37-15.99 198.8-18.4 201.21-19.83 203.62-21.25 206.54-21.25L206.54-21.25Q209.42-21.25 211.82-19.88 214.21-18.51 215.64-16.18 217.06-13.85 217.06-10.9L217.06-10.9 217.06-9.38 203.45-9.38Q202.55-9.38 201.61-9.44 200.67-9.51 199.77-9.65L199.77-9.65Q200.15-6.88 202.29-5 204.42-3.13 207.37-3.13L207.37-3.13Q209.35-3.13 211.05-4.03 212.76-4.93 213.8-6.42L213.8-6.42 214.84-2.15Q213.35-0.94 211.42-0.26 209.49 0.42 207.34 0.42ZM199.67-12.19L199.67-12.19Q201.54-12.5 203.45-12.5L203.45-12.5 210.36-12.5Q211.12-12.5 211.87-12.45 212.62-12.4 213.38-12.33L213.38-12.33Q212.89-14.76 210.95-16.34 209.01-17.92 206.54-17.92L206.54-17.92Q204.01-17.92 202.1-16.23 200.19-14.55 199.67-12.19Z" opacity="1" transform="matrix(1,0,0,1,0,0)" fill="#000000" class="wordmark-text-0" data-fill-palette-color="primary" id="text-0"></path></svg></g></svg></g></svg></g></svg></g><g><svg viewBox="0 0 70.17586289405575 70.17588771929825" height="70.17588771929825" width="70.17586289405575"><g><svg xmlns="http://www.w3.org/2000/svg" xmlns:xlink="http://www.w3.org/1999/xlink" version="1.1" x="0" y="0" viewBox="2 1.9999787745460178 60 60.000021225453985" style="enable-background:new 0 0 64 64;" xml:space="preserve" height="70.17588771929825" width="70.17586289405575" class="icon-icon-0" data-fill-palette-color="accent" id="icon-0"><path d="M39 44H3A1 1 0 0 0 2 45V61A1 1 0 0 0 3 62H39A1 1 0 0 0 40 61V45A1 1 0 0 0 39 44M38 60H28V58H26V60H4V46H26V48H28V46H38z" fill="#ff8000" data-fill-palette-color="accent"></path><path d="M61 38H58V33A1 1 0 0 0 57 32H49A1 1 0 0 0 48 33V38H45A1 1 0 0 0 44 39V57A1 1 0 0 0 45 58H46V61A1 1 0 0 0 47 62H51A1 1 0 0 0 52 61V58H54V61A1 1 0 0 0 55 62H59A1 1 0 0 0 60 61V58H61A1 1 0 0 0 62 57V39A1 1 0 0 0 61 38M50 34H56V38H50zM60 40V42H46V40zM60 44V52H46V44zM50 60H48V58H50zM58 60H56V58H58zM59 56H46V54H60V56z" fill="#ff8000" data-fill-palette-color="accent"></path><path d="M34.287 17.127L41.707 9.707A1 1 0 0 0 42 9V3A1 1 0 0 0 41 2H35A1 1 0 0 0 34.293 2.293L26.873 9.713 15.555 2.168A1 1 0 0 0 14.293 2.293L11.293 5.293A1 1 0 0 0 11.293 6.707L20.647 16.061 11.739 26.75 8.447 25.104A1 1 0 0 0 7.293 25.292L5.293 27.292A1 1 0 0 0 5.293 28.706L15.293 38.706A0.994 0.994 0 0 0 16.707 38.707L18.707 36.707C19.011 36.402 19.087 35.937 18.895 35.553L17.249 32.261 27.939 23.353 37.293 32.707A1 1 0 0 0 38.707 32.707L41.707 29.707A1 1 0 0 0 41.832 28.445zM38 30.586L28.707 21.293A1 1 0 0 0 27.36 21.231L15.36 31.231A1 1 0 0 0 15.106 32.447L16.784 35.802 16 36.586 7.414 28 8.197 27.217 11.552 28.895A1 1 0 0 0 12.767 28.641L22.767 16.641A1 1 0 0 0 22.706 15.293L13.414 6 15.127 4.287 26.445 11.832A1 1 0 0 0 27.707 11.707L35.414 4H40V8.586L32.293 16.293A1 1 0 0 0 32.168 17.555L39.713 28.873z" fill="#ff8000" data-fill-palette-color="accent"></path><path d="M5.5 19A4 4 0 0 0 6.401 18.895C7.232 19.604 8.328 20 9.5 20S11.768 19.604 12.599 18.895A4 4 0 0 0 13.5 19C15.43 19 17 17.654 17 16S15.43 13 13.5 13A4 4 0 0 0 12.599 13.105C11.768 12.396 10.672 12 9.5 12S7.232 12.396 6.401 13.105A4 4 0 0 0 5.5 13C3.57 13 2 14.346 2 16S3.57 19 5.5 19M6.28 15.163A1 1 0 0 0 7.437 14.891C7.909 14.333 8.68 14 9.5 14S11.091 14.333 11.563 14.891A1 1 0 0 0 12.72 15.163C13.741 14.728 15 15.292 15 16S13.741 17.273 12.72 16.837A1 1 0 0 0 11.563 17.109C11.091 17.667 10.32 18 9.5 18S7.909 17.667 7.437 17.109A1 1 0 0 0 6.28 16.836C5.261 17.273 4 16.708 4 16S5.261 14.728 6.28 15.163" fill="#ff8000" data-fill-palette-color="accent"></path><path d="M58.5 3A4 4 0 0 0 57.599 3.105C56.768 2.396 55.672 2 54.5 2S52.232 2.396 51.401 3.105A4 4 0 0 0 50.5 3C48.57 3 47 4.346 47 6S48.57 9 50.5 9A4 4 0 0 0 51.401 8.895C52.232 9.604 53.328 10 54.5 10S56.768 9.604 57.599 8.895A4 4 0 0 0 58.5 9C60.43 9 62 7.654 62 6S60.43 3 58.5 3M57.72 6.837A1 1 0 0 0 56.563 7.109C56.091 7.667 55.32 8 54.5 8S52.909 7.667 52.437 7.109A1 1 0 0 0 51.28 6.836C50.262 7.274 49 6.709 49 6 49 5.292 50.262 4.729 51.28 5.163A1 1 0 0 0 52.437 4.891C52.909 4.333 53.68 4 54.5 4S56.091 4.333 56.563 4.891A1 1 0 0 0 57.72 5.163C58.74 4.729 60 5.292 60 6 60 6.709 58.74 7.274 57.72 6.837" fill="#ff8000" data-fill-palette-color="accent"></path><path d="M45.401 20.895C46.232 21.604 47.328 22 48.5 22S50.768 21.604 51.599 20.895A4 4 0 0 0 52.5 21C54.43 21 56 19.654 56 18S54.43 15 52.5 15A4 4 0 0 0 51.599 15.105C50.768 14.396 49.672 14 48.5 14S46.232 14.396 45.401 15.105A4 4 0 0 0 44.5 15C42.57 15 41 16.346 41 18S42.57 21 44.5 21A4 4 0 0 0 45.401 20.895M43 18C43 17.292 44.261 16.728 45.28 17.163A1 1 0 0 0 46.437 16.891C46.909 16.333 47.68 16 48.5 16S50.091 16.333 50.563 16.891A1 1 0 0 0 51.72 17.163C52.741 16.728 54 17.292 54 18S52.741 19.274 51.72 18.837A1 1 0 0 0 50.563 19.109C50.091 19.667 49.32 20 48.5 20S46.909 19.667 46.437 19.109A1 1 0 0 0 45.28 18.836C44.261 19.274 43 18.708 43 18" fill="#ff8000" data-fill-palette-color="accent"></path><rect x="26" y="50" width="2" height="2" fill="#ff8000" data-fill-palette-color="accent"></rect><rect x="26" y="54" width="2" height="2" fill="#ff8000" data-fill-palette-color="accent"></rect><rect x="7" y="49" width="14" height="2" fill="#ff8000" data-fill-palette-color="accent"></rect><rect x="7" y="55" width="16" height="2" fill="#ff8000" data-fill-palette-color="accent"></rect><path d="M31 56H35A1 1 0 0 0 36 55V51A1 1 0 0 0 35 50H31A1 1 0 0 0 30 51V55A1 1 0 0 0 31 56M32 52H34V54H32z" fill="#ff8000" data-fill-palette-color="accent"></path></svg></g></svg></g></svg></g><defs></defs></svg><rect width="395.52" height="55.373786349676045" fill="none" stroke="none" visibility="hidden"></rect></g></svg></g></svg>